<svg xmlns="http://www.w3.org/2000/svg" xmlns:xlink="http://www.w3.org/1999/xlink" width="2000" zoomAndPan="magnify" viewBox="0 0 1500 1499.999933" height="2000" preserveAspectRatio="xMidYMid meet" version="1.0"><defs><g/><clipPath id="bd4843469e"><path d="M 731 0.160156 L 1197 0.160156 L 1197 469.679688 L 731 469.679688 Z M 731 0.160156 " clip-rule="nonzero"/></clipPath><clipPath id="cc0b3f22ba"><path d="M 0 509 L 775 509 L 775 764.800781 L 0 764.800781 Z M 0 509 " clip-rule="nonzero"/></clipPath><clipPath id="0d99460d88"><rect x="0" width="775" y="0" height="256"/></clipPath><clipPath id="5d5e839070"><path d="M 766 493 L 1497.121094 493 L 1497.121094 764.800781 L 766 764.800781 Z M 766 493 " clip-rule="nonzero"/></clipPath><clipPath id="ba5b32aee4"><rect x="0" width="732" y="0" height="272"/></clipPath><clipPath id="eb1b674dc7"><rect x="0" width="1498" y="0" height="765"/></clipPath></defs><rect x="-150" width="1800" fill="#ffffff" y="-149.999993" height="1799.99992" fill-opacity="1"/><rect x="-150" width="1800" fill="#ffffff" y="-149.999993" height="1799.99992" fill-opacity="1"/><g transform="matrix(1, 0, 0, 1, 0, 326)"><g clip-path="url(#eb1b674dc7)"><g clip-path="url(#bd4843469e)"><path fill="#333333" d="M 1191.414062 444.769531 C 1179.65625 434.164062 1159.3125 435.574219 1144.847656 432 C 1131.792969 428.804688 1120.148438 425.34375 1106.433594 423.183594 C 1096.988281 421.835938 1087.644531 419.992188 1078.394531 417.652344 C 1059.578125 412.550781 1054.449219 402.148438 1034.792969 401.976562 C 1007.328125 401.394531 980.007812 399.070312 952.839844 395 C 921.457031 390.648438 904.832031 378.460938 894.109375 353.910156 C 897.511719 339.5 894.746094 324.082031 892.785156 306.5625 C 887.683594 260.457031 873.765625 221.78125 879.097656 156.28125 C 880.191406 142.738281 913.1875 142.191406 924.082031 142.191406 C 950.390625 142.191406 977.476562 142.191406 986.382812 118.101562 C 990.128906 109.492188 994.449219 101.183594 999.351562 93.171875 C 1001.011719 91.136719 1002.46875 88.964844 1003.730469 86.660156 C 1006.207031 79.425781 1000.648438 74.847656 994.59375 72.253906 C 986.640625 68.910156 972.925781 65.078125 965.085938 61.359375 C 951.398438 54.816406 932.582031 49.832031 926.933594 34.992188 C 924.570312 28.769531 915.839844 15.109375 889.242188 7.300781 C 878.945312 3.769531 868.378906 1.492188 857.542969 0.46875 C 838.726562 -0.972656 816.707031 5.109375 803.019531 18.796875 C 788.613281 33.207031 781.148438 52.398438 778.785156 72.484375 C 777.75 81.503906 776.308594 93.863281 782.070312 100.722656 C 790.167969 110.378906 803.195312 110.578125 815.816406 109.972656 C 832.242188 109.195312 833.710938 95.910156 834.054688 75.769531 C 834.199219 66.488281 834.375 57.730469 837.398438 51.359375 C 837.597656 51.027344 837.851562 50.738281 838.15625 50.5 C 838.460938 50.261719 838.800781 50.082031 839.171875 49.972656 C 839.546875 49.859375 839.925781 49.816406 840.3125 49.847656 C 840.699219 49.875 841.070312 49.976562 841.421875 50.144531 C 841.769531 50.3125 842.078125 50.539062 842.34375 50.820312 C 842.609375 51.105469 842.816406 51.425781 842.960938 51.789062 C 843.105469 52.148438 843.183594 52.523438 843.1875 52.910156 C 843.191406 53.300781 843.125 53.675781 842.988281 54.039062 C 840.539062 59.167969 840.394531 67.296875 840.253906 75.882812 C 839.933594 93.316406 839.5625 115.046875 816.132812 116.226562 C 802.242188 116.890625 787 116.226562 777.316406 104.699219 C 775.453125 102.207031 774.042969 99.480469 773.085938 96.519531 C 772.128906 93.558594 771.675781 90.523438 771.726562 87.410156 C 766.367188 102.367188 760.832031 117.320312 759.160156 121.011719 L 758.5 122.453125 C 760.917969 128.214844 763.023438 137.175781 764.40625 139.480469 C 766.585938 142.652344 769.046875 145.59375 771.785156 148.300781 C 772.738281 149.328125 773.492188 150.492188 774.046875 151.78125 C 774.601562 153.074219 774.921875 154.417969 775.011719 155.820312 C 775.066406 157.046875 774.839844 158.21875 774.332031 159.335938 C 773.824219 160.453125 773.089844 161.394531 772.128906 162.160156 C 770.804688 163.199219 771.984375 165.820312 770.660156 168.183594 C 769.570312 170.023438 768.140625 171.542969 766.367188 172.738281 C 765.183594 173.628906 767.085938 175.617188 762.964844 180.402344 C 758.84375 185.1875 740.488281 185.964844 735.589844 191.0625 C 732.332031 194.4375 731.671875 201.09375 731.640625 207.171875 C 742.074219 229.648438 750.515625 253.769531 750.863281 278.667969 C 753.121094 279.160156 755.34375 279.769531 757.539062 280.5 C 759.730469 281.234375 761.875 282.078125 763.976562 283.042969 C 766.078125 284.003906 768.121094 285.078125 770.105469 286.257812 C 772.09375 287.441406 774.007812 288.726562 775.855469 290.113281 C 777.703125 291.503906 779.46875 292.988281 781.15625 294.566406 C 782.84375 296.144531 784.445312 297.808594 785.953125 299.558594 C 787.460938 301.3125 788.871094 303.136719 790.183594 305.039062 C 791.492188 306.941406 792.699219 308.910156 793.800781 310.941406 C 797.140625 317.195312 799.964844 323.9375 804.835938 329.242188 C 807.695312 331.640625 809.933594 334.519531 811.550781 337.886719 C 813.796875 344.746094 808.0625 350.25 804.75 355.578125 C 801.4375 360.910156 798.988281 368.257812 791.667969 369.585938 C 784 370.996094 769.882812 368.34375 763.742188 374.367188 C 760.863281 377.25 763.167969 380.132812 764.839844 383.15625 C 769.707031 392.292969 772.15625 402.550781 767.71875 411.972656 C 762.707031 422.636719 762.332031 429.667969 760.140625 434.453125 C 759.03125 437.058594 757.597656 439.472656 755.84375 441.695312 C 754.085938 443.921875 752.070312 445.875 749.796875 447.5625 L 748.441406 448.542969 C 753.945312 447.613281 759.488281 447.085938 765.070312 446.957031 C 775.441406 446.957031 785.875 450.070312 796.164062 448.3125 C 809.214844 446.121094 822.242188 436.613281 834.230469 426.699219 C 836.878906 428.515625 839.503906 430.359375 842.242188 432.089844 C 856.792969 441.308594 868.867188 450.761719 886.472656 451.742188 C 901.160156 452.210938 915.808594 451.675781 930.421875 450.128906 C 947.191406 448.832031 963.359375 447.878906 979.609375 447.878906 C 992.132812 447.835938 1004.617188 448.460938 1017.074219 449.753906 C 1030.21875 450.863281 1043.390625 451.265625 1056.582031 450.964844 C 1066.921875 450.859375 1077.210938 451.550781 1087.441406 453.039062 C 1097.296875 454.480469 1104.417969 455.917969 1112.515625 461.683594 C 1124.039062 469.695312 1146.027344 469.695312 1146.71875 469.695312 C 1161.15625 469.578125 1213.027344 464.304688 1191.414062 444.769531 Z M 1191.414062 444.769531 " fill-opacity="1" fill-rule="nonzero"/></g><path fill="#f5a926" d="M 589.054688 332.382812 C 599.457031 327.339844 612.28125 325.957031 624.558594 325.957031 C 638.390625 325.957031 651.761719 328.320312 663.546875 335.695312 C 672.597656 341.460938 675.074219 331.375 681.730469 327.65625 C 687.003906 324.773438 690 326.273438 692.421875 319.933594 C 694.554688 314.371094 695.964844 308.578125 697.636719 302.875 C 700.519531 292.757812 693.976562 281.578125 688.097656 273.507812 C 681.789062 264.863281 673.863281 257.6875 670.808594 247.085938 C 668.359375 238.929688 669.222656 227.71875 669.222656 216.539062 C 669.222656 208.066406 669.222656 199.652344 668.964844 191.207031 C 668.964844 185.933594 669.28125 180.027344 672.710938 180.027344 C 680.550781 180.027344 686.859375 197.316406 689.425781 203.082031 C 693.921875 213.023438 699.367188 222.445312 704.523438 232.070312 C 708.820312 240.023438 712.132812 249.1875 717.089844 256.679688 C 717.40625 251.433594 714.839844 246.679688 713.863281 241.667969 C 711.527344 229.476562 712.246094 215.53125 712.707031 203.050781 C 712.707031 199.363281 713.34375 187.316406 718.472656 187.316406 C 719.695312 187.40625 720.769531 187.847656 721.699219 188.644531 C 725.128906 191.179688 726.742188 196.769531 728.558594 200.457031 C 729.625 202.648438 730.660156 204.894531 731.699219 207.113281 C 731.699219 201.035156 732.390625 194.378906 735.648438 191.007812 C 740.546875 185.90625 758.902344 185.042969 763.023438 180.34375 C 767.144531 175.648438 765.242188 173.574219 766.421875 172.679688 C 768.242188 171.5 769.710938 169.980469 770.832031 168.125 C 772.15625 165.761719 770.976562 163.140625 772.300781 162.101562 C 773.261719 161.339844 773.996094 160.398438 774.503906 159.28125 C 775.011719 158.160156 775.238281 156.988281 775.183594 155.761719 C 775.132812 154.34375 774.839844 152.976562 774.3125 151.660156 C 773.78125 150.34375 773.042969 149.15625 772.101562 148.097656 C 769.363281 145.390625 766.90625 142.453125 764.722656 139.28125 C 762.964844 136.398438 760.027344 122.625 756.769531 118.359375 C 753.511719 114.09375 741.46875 100.839844 733.226562 98.476562 C 724.984375 96.113281 723.515625 96.140625 722.332031 93.921875 C 721.152344 91.703125 729.25 73.460938 728.097656 71.097656 C 728 70.789062 727.8125 70.542969 727.546875 70.359375 C 727.277344 70.179688 726.980469 70.097656 726.65625 70.121094 C 725.242188 70.121094 715.792969 78.21875 715.734375 78.1875 C 714.726562 77.582031 717.003906 69.542969 715.101562 69.3125 C 710.546875 68.132812 686.746094 92.367188 676.890625 99.65625 C 667.035156 106.949219 654.585938 115.21875 644.183594 138.90625 C 633.347656 163.574219 633.894531 196.539062 615.367188 201.351562 C 596.835938 206.164062 571.878906 201.007812 545.570312 216.914062 C 539.882812 220.445312 534.476562 224.367188 529.351562 228.675781 C 524.230469 232.988281 519.441406 237.644531 514.988281 242.644531 C 510.53125 247.644531 506.460938 252.9375 502.769531 258.523438 C 499.078125 264.109375 495.804688 269.929688 492.953125 275.988281 C 476.871094 310.566406 474.941406 341.488281 475.660156 379.035156 C 475.976562 393.847656 473.960938 411.945312 456.960938 416.238281 C 452.0625 417.425781 447.097656 418 442.0625 417.96875 C 428.054688 417.96875 412.925781 413.789062 403.332031 405.058594 C 386.445312 389.640625 380.566406 364.457031 387.078125 342.8125 C 392.207031 325.753906 405.003906 310.453125 419.066406 299.589844 C 447.160156 277.398438 477.332031 258.929688 504.132812 234.894531 C 527.1875 214.320312 555.484375 176.800781 545.917969 143.660156 C 545.488281 141.464844 544.738281 139.386719 543.671875 137.417969 C 542.605469 135.453125 541.269531 133.691406 539.664062 132.132812 C 535.3125 128.328125 527.042969 127.523438 523.785156 133.230469 C 520.527344 138.933594 523.382812 146.109375 523.007812 151.902344 C 520.671875 188.328125 478.6875 222.707031 451.800781 242.53125 C 413.992188 270.339844 374.109375 288.378906 360.046875 337.367188 C 349.90625 372.957031 366.359375 418.371094 400.851562 433.527344 C 416.703125 440.472656 434.308594 438.773438 451.023438 440.992188 C 460.402344 442.015625 469.539062 444.109375 478.429688 447.273438 C 484.507812 449.609375 493.441406 451.65625 497.765625 456.726562 C 500.300781 459.609375 500.992188 462.316406 504.882812 464.132812 C 510.285156 466.132812 515.867188 467.042969 521.625 466.871094 C 519.464844 423.070312 524.015625 363.9375 589.054688 332.382812 Z M 589.054688 332.382812 " fill-opacity="1" fill-rule="nonzero"/><g clip-path="url(#cc0b3f22ba)"><g transform="matrix(1, 0, 0, 1, 0, 509)"><g clip-path="url(#0d99460d88)"><g fill="#f5a926" fill-opacity="0.4"><g transform="translate(-12.652632, 202.145045)"><g><path d="M 99.15625 -198.859375 C 112.59375 -198.859375 124.566406 -195.875 135.078125 -189.90625 C 145.597656 -183.945312 153.984375 -175.804688 160.234375 -165.484375 C 166.484375 -155.160156 169.609375 -143.46875 169.609375 -130.40625 C 169.609375 -117.332031 166.53125 -105.632812 160.375 -95.3125 C 154.21875 -84.988281 145.832031 -76.890625 135.21875 -71.015625 C 124.613281 -65.148438 112.59375 -62.21875 99.15625 -62.21875 L 65.90625 -62.21875 L 65.90625 0 L 22.734375 0 L 22.734375 -198.859375 Z M 97.4375 -101.984375 C 105.96875 -101.984375 112.835938 -104.679688 118.046875 -110.078125 C 123.253906 -115.484375 125.859375 -122.257812 125.859375 -130.40625 C 125.859375 -138.738281 123.253906 -145.601562 118.046875 -151 C 112.835938 -156.394531 105.96875 -159.09375 97.4375 -159.09375 L 65.90625 -159.09375 L 65.90625 -101.984375 Z M 97.4375 -101.984375 "/></g></g></g><g fill="#f5a926" fill-opacity="0.4"><g transform="translate(147.851488, 202.145045)"><g><path d="M 98.296875 -154.265625 L 111.9375 -154.265625 L 111.9375 -115.0625 L 94.03125 -115.0625 C 82.289062 -115.0625 73.910156 -112.3125 68.890625 -106.8125 C 63.867188 -101.320312 61.359375 -92.328125 61.359375 -79.828125 L 61.359375 0 L 19.890625 0 L 19.890625 -153.40625 L 46.59375 -153.40625 L 53.984375 -134.65625 C 64.398438 -147.726562 79.171875 -154.265625 98.296875 -154.265625 Z M 98.296875 -154.265625 "/></g></g></g><g fill="#f5a926" fill-opacity="0.4"><g transform="translate(247.278162, 202.145045)"><g><path d="M 145.171875 -153.6875 L 176.140625 -153.6875 L 176.140625 -0.28125 L 143.46875 -0.28125 L 140.0625 -13.921875 C 133.425781 -8.234375 125.894531 -3.78125 117.46875 -0.5625 C 109.039062 2.65625 100 4.265625 90.34375 4.265625 C 75 4.265625 61.265625 0.710938 49.140625 -6.390625 C 37.023438 -13.492188 27.460938 -23.148438 20.453125 -35.359375 C 13.441406 -47.578125 9.9375 -61.453125 9.9375 -76.984375 C 9.9375 -92.328125 13.441406 -106.109375 20.453125 -118.328125 C 27.460938 -130.546875 37.023438 -140.15625 49.140625 -147.15625 C 61.265625 -154.164062 75 -157.671875 90.34375 -157.671875 C 100.1875 -157.671875 109.367188 -156.015625 117.890625 -152.703125 C 126.421875 -149.390625 134 -144.796875 140.625 -138.921875 Z M 93.75 -34.9375 C 101.707031 -34.9375 108.859375 -36.734375 115.203125 -40.328125 C 121.546875 -43.929688 126.515625 -48.90625 130.109375 -55.25 C 133.710938 -61.59375 135.515625 -68.835938 135.515625 -76.984375 C 135.515625 -84.941406 133.710938 -92.09375 130.109375 -98.4375 C 126.515625 -104.78125 121.546875 -109.796875 115.203125 -113.484375 C 108.859375 -117.179688 101.707031 -119.03125 93.75 -119.03125 C 85.601562 -119.03125 78.40625 -117.179688 72.15625 -113.484375 C 65.90625 -109.796875 60.976562 -104.78125 57.375 -98.4375 C 53.78125 -92.09375 51.984375 -84.941406 51.984375 -76.984375 C 51.984375 -68.835938 53.78125 -61.640625 57.375 -55.390625 C 60.976562 -49.140625 65.90625 -44.164062 72.15625 -40.46875 C 78.40625 -36.78125 85.601562 -34.9375 93.75 -34.9375 Z M 93.75 -34.9375 "/></g></g></g><g fill="#f5a926" fill-opacity="0.4"><g transform="translate(427.099781, 202.145045)"><g><path d="M 107.390625 -157.109375 C 124.816406 -157.109375 138.59375 -151.28125 148.71875 -139.625 C 158.851562 -127.976562 163.921875 -112.40625 163.921875 -92.90625 L 163.921875 0 L 122.4375 0 L 122.4375 -86.359375 C 122.4375 -109.273438 113.535156 -120.734375 95.734375 -120.734375 C 85.128906 -120.734375 76.75 -117.132812 70.59375 -109.9375 C 64.4375 -102.75 61.359375 -93 61.359375 -80.6875 L 61.359375 0 L 19.890625 0 L 19.890625 -153.40625 L 48.296875 -153.40625 L 56.53125 -134.375 C 62.21875 -141.382812 69.507812 -146.925781 78.40625 -151 C 87.3125 -155.070312 96.972656 -157.109375 107.390625 -157.109375 Z M 107.390625 -157.109375 "/></g></g></g><g fill="#f5a926" fill-opacity="0.4"><g transform="translate(593.001419, 202.145045)"><g><path d="M 145.171875 -153.6875 L 176.140625 -153.6875 L 176.140625 -0.28125 L 143.46875 -0.28125 L 140.0625 -13.921875 C 133.425781 -8.234375 125.894531 -3.78125 117.46875 -0.5625 C 109.039062 2.65625 100 4.265625 90.34375 4.265625 C 75 4.265625 61.265625 0.710938 49.140625 -6.390625 C 37.023438 -13.492188 27.460938 -23.148438 20.453125 -35.359375 C 13.441406 -47.578125 9.9375 -61.453125 9.9375 -76.984375 C 9.9375 -92.328125 13.441406 -106.109375 20.453125 -118.328125 C 27.460938 -130.546875 37.023438 -140.15625 49.140625 -147.15625 C 61.265625 -154.164062 75 -157.671875 90.34375 -157.671875 C 100.1875 -157.671875 109.367188 -156.015625 117.890625 -152.703125 C 126.421875 -149.390625 134 -144.796875 140.625 -138.921875 Z M 93.75 -34.9375 C 101.707031 -34.9375 108.859375 -36.734375 115.203125 -40.328125 C 121.546875 -43.929688 126.515625 -48.90625 130.109375 -55.25 C 133.710938 -61.59375 135.515625 -68.835938 135.515625 -76.984375 C 135.515625 -84.941406 133.710938 -92.09375 130.109375 -98.4375 C 126.515625 -104.78125 121.546875 -109.796875 115.203125 -113.484375 C 108.859375 -117.179688 101.707031 -119.03125 93.75 -119.03125 C 85.601562 -119.03125 78.40625 -117.179688 72.15625 -113.484375 C 65.90625 -109.796875 60.976562 -104.78125 57.375 -98.4375 C 53.78125 -92.09375 51.984375 -84.941406 51.984375 -76.984375 C 51.984375 -68.835938 53.78125 -61.640625 57.375 -55.390625 C 60.976562 -49.140625 65.90625 -44.164062 72.15625 -40.46875 C 78.40625 -36.78125 85.601562 -34.9375 93.75 -34.9375 Z M 93.75 -34.9375 "/></g></g></g><g fill="#f5a926" fill-opacity="1"><g transform="translate(-12.652632, 202.145045)"><g><path d="M 99.15625 -198.859375 C 112.59375 -198.859375 124.566406 -195.875 135.078125 -189.90625 C 145.597656 -183.945312 153.984375 -175.804688 160.234375 -165.484375 C 166.484375 -155.160156 169.609375 -143.46875 169.609375 -130.40625 C 169.609375 -117.332031 166.53125 -105.632812 160.375 -95.3125 C 154.21875 -84.988281 145.832031 -76.890625 135.21875 -71.015625 C 124.613281 -65.148438 112.59375 -62.21875 99.15625 -62.21875 L 65.90625 -62.21875 L 65.90625 0 L 22.734375 0 L 22.734375 -198.859375 Z M 97.4375 -101.984375 C 105.96875 -101.984375 112.835938 -104.679688 118.046875 -110.078125 C 123.253906 -115.484375 125.859375 -122.257812 125.859375 -130.40625 C 125.859375 -138.738281 123.253906 -145.601562 118.046875 -151 C 112.835938 -156.394531 105.96875 -159.09375 97.4375 -159.09375 L 65.90625 -159.09375 L 65.90625 -101.984375 Z M 97.4375 -101.984375 "/></g></g></g><g fill="#f5a926" fill-opacity="1"><g transform="translate(147.851488, 202.145045)"><g><path d="M 98.296875 -154.265625 L 111.9375 -154.265625 L 111.9375 -115.0625 L 94.03125 -115.0625 C 82.289062 -115.0625 73.910156 -112.3125 68.890625 -106.8125 C 63.867188 -101.320312 61.359375 -92.328125 61.359375 -79.828125 L 61.359375 0 L 19.890625 0 L 19.890625 -153.40625 L 46.59375 -153.40625 L 53.984375 -134.65625 C 64.398438 -147.726562 79.171875 -154.265625 98.296875 -154.265625 Z M 98.296875 -154.265625 "/></g></g></g><g fill="#f5a926" fill-opacity="1"><g transform="translate(247.278162, 202.145045)"><g><path d="M 145.171875 -153.6875 L 176.140625 -153.6875 L 176.140625 -0.28125 L 143.46875 -0.28125 L 140.0625 -13.921875 C 133.425781 -8.234375 125.894531 -3.78125 117.46875 -0.5625 C 109.039062 2.65625 100 4.265625 90.34375 4.265625 C 75 4.265625 61.265625 0.710938 49.140625 -6.390625 C 37.023438 -13.492188 27.460938 -23.148438 20.453125 -35.359375 C 13.441406 -47.578125 9.9375 -61.453125 9.9375 -76.984375 C 9.9375 -92.328125 13.441406 -106.109375 20.453125 -118.328125 C 27.460938 -130.546875 37.023438 -140.15625 49.140625 -147.15625 C 61.265625 -154.164062 75 -157.671875 90.34375 -157.671875 C 100.1875 -157.671875 109.367188 -156.015625 117.890625 -152.703125 C 126.421875 -149.390625 134 -144.796875 140.625 -138.921875 Z M 93.75 -34.9375 C 101.707031 -34.9375 108.859375 -36.734375 115.203125 -40.328125 C 121.546875 -43.929688 126.515625 -48.90625 130.109375 -55.25 C 133.710938 -61.59375 135.515625 -68.835938 135.515625 -76.984375 C 135.515625 -84.941406 133.710938 -92.09375 130.109375 -98.4375 C 126.515625 -104.78125 121.546875 -109.796875 115.203125 -113.484375 C 108.859375 -117.179688 101.707031 -119.03125 93.75 -119.03125 C 85.601562 -119.03125 78.40625 -117.179688 72.15625 -113.484375 C 65.90625 -109.796875 60.976562 -104.78125 57.375 -98.4375 C 53.78125 -92.09375 51.984375 -84.941406 51.984375 -76.984375 C 51.984375 -68.835938 53.78125 -61.640625 57.375 -55.390625 C 60.976562 -49.140625 65.90625 -44.164062 72.15625 -40.46875 C 78.40625 -36.78125 85.601562 -34.9375 93.75 -34.9375 Z M 93.75 -34.9375 "/></g></g></g><g fill="#f5a926" fill-opacity="1"><g transform="translate(427.099781, 202.145045)"><g><path d="M 107.390625 -157.109375 C 124.816406 -157.109375 138.59375 -151.28125 148.71875 -139.625 C 158.851562 -127.976562 163.921875 -112.40625 163.921875 -92.90625 L 163.921875 0 L 122.4375 0 L 122.4375 -86.359375 C 122.4375 -109.273438 113.535156 -120.734375 95.734375 -120.734375 C 85.128906 -120.734375 76.75 -117.132812 70.59375 -109.9375 C 64.4375 -102.75 61.359375 -93 61.359375 -80.6875 L 61.359375 0 L 19.890625 0 L 19.890625 -153.40625 L 48.296875 -153.40625 L 56.53125 -134.375 C 62.21875 -141.382812 69.507812 -146.925781 78.40625 -151 C 87.3125 -155.070312 96.972656 -157.109375 107.390625 -157.109375 Z M 107.390625 -157.109375 "/></g></g></g><g fill="#f5a926" fill-opacity="1"><g transform="translate(593.001419, 202.145045)"><g><path d="M 145.171875 -153.6875 L 176.140625 -153.6875 L 176.140625 -0.28125 L 143.46875 -0.28125 L 140.0625 -13.921875 C 133.425781 -8.234375 125.894531 -3.78125 117.46875 -0.5625 C 109.039062 2.65625 100 4.265625 90.34375 4.265625 C 75 4.265625 61.265625 0.710938 49.140625 -6.390625 C 37.023438 -13.492188 27.460938 -23.148438 20.453125 -35.359375 C 13.441406 -47.578125 9.9375 -61.453125 9.9375 -76.984375 C 9.9375 -92.328125 13.441406 -106.109375 20.453125 -118.328125 C 27.460938 -130.546875 37.023438 -140.15625 49.140625 -147.15625 C 61.265625 -154.164062 75 -157.671875 90.34375 -157.671875 C 100.1875 -157.671875 109.367188 -156.015625 117.890625 -152.703125 C 126.421875 -149.390625 134 -144.796875 140.625 -138.921875 Z M 93.75 -34.9375 C 101.707031 -34.9375 108.859375 -36.734375 115.203125 -40.328125 C 121.546875 -43.929688 126.515625 -48.90625 130.109375 -55.25 C 133.710938 -61.59375 135.515625 -68.835938 135.515625 -76.984375 C 135.515625 -84.941406 133.710938 -92.09375 130.109375 -98.4375 C 126.515625 -104.78125 121.546875 -109.796875 115.203125 -113.484375 C 108.859375 -117.179688 101.707031 -119.03125 93.75 -119.03125 C 85.601562 -119.03125 78.40625 -117.179688 72.15625 -113.484375 C 65.90625 -109.796875 60.976562 -104.78125 57.375 -98.4375 C 53.78125 -92.09375 51.984375 -84.941406 51.984375 -76.984375 C 51.984375 -68.835938 53.78125 -61.640625 57.375 -55.390625 C 60.976562 -49.140625 65.90625 -44.164062 72.15625 -40.46875 C 78.40625 -36.78125 85.601562 -34.9375 93.75 -34.9375 Z M 93.75 -34.9375 "/></g></g></g></g></g></g><g clip-path="url(#5d5e839070)"><g transform="matrix(1, 0, 0, 1, 766, 493)"><g clip-path="url(#ba5b32aee4)"><g fill="#242424" fill-opacity="1"><g transform="translate(0.768913, 217.081321)"><g><path d="M 107.390625 -157.109375 C 124.816406 -157.109375 138.597656 -151.285156 148.734375 -139.640625 C 158.867188 -127.992188 163.9375 -112.414062 163.9375 -92.90625 L 163.9375 0 L 122.453125 0 L 122.453125 -86.375 C 122.453125 -109.289062 113.550781 -120.75 95.75 -120.75 C 85.132812 -120.75 76.75 -117.148438 70.59375 -109.953125 C 64.445312 -102.753906 61.375 -93 61.375 -80.6875 L 61.375 0 L 19.890625 0 L 19.890625 -153.421875 L 48.296875 -153.421875 L 56.53125 -134.390625 C 62.21875 -141.390625 69.507812 -146.925781 78.40625 -151 C 87.3125 -155.070312 96.972656 -157.109375 107.390625 -157.109375 Z M 107.390625 -157.109375 "/></g></g></g><g fill="#242424" fill-opacity="1"><g transform="translate(166.669716, 217.081321)"><g><path d="M 19.890625 -173.875 L 19.890625 -212.515625 L 61.375 -212.515625 L 61.375 -173.875 Z M 19.890625 0 L 19.890625 -153.421875 L 61.375 -153.421875 L 61.375 0 Z M 19.890625 0 "/></g></g></g><g fill="#242424" fill-opacity="1"><g transform="translate(231.722266, 217.081321)"><g><path d="M 194.328125 -157.109375 C 204.929688 -157.109375 214.304688 -154.503906 222.453125 -149.296875 C 230.597656 -144.085938 236.988281 -136.9375 241.625 -127.84375 C 246.269531 -118.757812 248.59375 -108.25 248.59375 -96.3125 L 248.59375 0 L 207.109375 0 L 207.109375 -89.5 C 207.109375 -110.332031 199.34375 -120.75 183.8125 -120.75 C 174.726562 -120.75 167.582031 -117.429688 162.375 -110.796875 C 157.164062 -104.171875 154.5625 -94.890625 154.5625 -82.953125 L 154.5625 0 L 113.921875 0 L 113.921875 -89.5 C 113.921875 -110.332031 106.441406 -120.75 91.484375 -120.75 C 82.015625 -120.75 74.628906 -117.429688 69.328125 -110.796875 C 64.023438 -104.171875 61.375 -94.890625 61.375 -82.953125 L 61.375 0 L 19.890625 0 L 19.890625 -153.421875 L 48.859375 -153.421875 L 56.53125 -134.390625 C 62.03125 -141.203125 68.800781 -146.691406 76.84375 -150.859375 C 84.894531 -155.023438 93.46875 -157.109375 102.5625 -157.109375 C 112.21875 -157.109375 120.925781 -154.929688 128.6875 -150.578125 C 136.457031 -146.222656 142.523438 -140.160156 146.890625 -132.390625 C 152.191406 -139.972656 159.007812 -145.988281 167.34375 -150.4375 C 175.675781 -154.882812 184.671875 -157.109375 194.328125 -157.109375 Z M 194.328125 -157.109375 "/></g></g></g><g fill="#242424" fill-opacity="1"><g transform="translate(481.994713, 217.081321)"><g><path d="M 145.1875 -153.703125 L 176.140625 -153.703125 L 176.140625 -0.28125 L 143.46875 -0.28125 L 140.0625 -13.921875 C 133.4375 -8.234375 125.910156 -3.78125 117.484375 -0.5625 C 109.054688 2.65625 100.007812 4.265625 90.34375 4.265625 C 75 4.265625 61.265625 0.710938 49.140625 -6.390625 C 37.023438 -13.492188 27.460938 -23.15625 20.453125 -35.375 C 13.441406 -47.59375 9.9375 -61.46875 9.9375 -77 C 9.9375 -92.332031 13.441406 -106.109375 20.453125 -118.328125 C 27.460938 -130.546875 37.023438 -140.160156 49.140625 -147.171875 C 61.265625 -154.179688 75 -157.6875 90.34375 -157.6875 C 100.195312 -157.6875 109.382812 -156.023438 117.90625 -152.703125 C 126.425781 -149.390625 134.003906 -144.796875 140.640625 -138.921875 Z M 93.75 -34.953125 C 101.707031 -34.953125 108.859375 -36.75 115.203125 -40.34375 C 121.546875 -43.9375 126.515625 -48.90625 130.109375 -55.25 C 133.710938 -61.601562 135.515625 -68.851562 135.515625 -77 C 135.515625 -84.945312 133.710938 -92.09375 130.109375 -98.4375 C 126.515625 -104.789062 121.546875 -109.8125 115.203125 -113.5 C 108.859375 -117.195312 101.707031 -119.046875 93.75 -119.046875 C 85.613281 -119.046875 78.414062 -117.195312 72.15625 -113.5 C 65.90625 -109.8125 60.976562 -104.789062 57.375 -98.4375 C 53.78125 -92.09375 51.984375 -84.945312 51.984375 -77 C 51.984375 -68.851562 53.78125 -61.65625 57.375 -55.40625 C 60.976562 -49.15625 65.90625 -44.179688 72.15625 -40.484375 C 78.414062 -36.796875 85.613281 -34.953125 93.75 -34.953125 Z M 93.75 -34.953125 "/></g></g></g><g fill="#242424" fill-opacity="1"><g transform="translate(661.815401, 217.081321)"><g><path d="M 19.890625 0 L 19.890625 -208.828125 L 61.375 -208.828125 L 61.375 0 Z M 19.890625 0 "/></g></g></g></g></g></g></g></g></svg>
