<svg xmlns="http://www.w3.org/2000/svg" xmlns:xlink="http://www.w3.org/1999/xlink" width="2000" zoomAndPan="magnify" viewBox="0 0 1500 1499.999933" height="2000" preserveAspectRatio="xMidYMid meet" version="1.0"><rect x="-150" width="1800" fill="#ffffff" y="-149.999993" height="1799.99992" fill-opacity="1"/><rect x="-150" width="1800" fill="#ffffff" y="-149.999993" height="1799.99992" fill-opacity="1"/><path fill="#333333" d="M 1460.488281 1114.707031 C 1440.109375 1096.328125 1404.847656 1098.777344 1379.773438 1092.582031 C 1357.148438 1087.039062 1336.96875 1081.042969 1313.195312 1077.300781 C 1296.828125 1074.964844 1280.628906 1071.765625 1264.597656 1067.710938 C 1231.984375 1058.867188 1223.09375 1040.839844 1189.027344 1040.539062 C 1141.421875 1039.535156 1094.074219 1035.507812 1046.980469 1028.453125 C 992.589844 1020.910156 963.769531 999.78125 945.191406 957.226562 C 951.085938 932.253906 946.289062 905.53125 942.894531 875.164062 C 934.050781 795.25 909.929688 728.222656 919.167969 614.695312 C 921.066406 591.21875 978.253906 590.269531 997.136719 590.269531 C 1042.734375 590.269531 1089.683594 590.269531 1105.117188 548.515625 C 1111.609375 533.59375 1119.101562 519.195312 1127.59375 505.3125 C 1130.472656 501.785156 1133.003906 498.019531 1135.1875 494.023438 C 1139.480469 481.488281 1129.84375 473.546875 1119.355469 469.050781 C 1105.570312 463.257812 1081.792969 456.613281 1068.207031 450.171875 C 1044.484375 438.832031 1011.867188 430.191406 1002.078125 404.46875 C 997.984375 393.683594 982.851562 370.007812 936.75 356.472656 C 918.902344 350.351562 900.589844 346.40625 881.808594 344.636719 C 849.195312 342.136719 811.035156 352.675781 787.308594 376.402344 C 762.335938 401.375 749.402344 434.636719 745.304688 469.449219 C 743.507812 485.085938 741.007812 506.511719 751 518.398438 C 765.035156 535.128906 787.609375 535.480469 809.484375 534.429688 C 837.957031 533.082031 840.503906 510.058594 841.101562 475.144531 C 841.351562 459.0625 841.652344 443.878906 846.894531 432.839844 C 847.066406 432.554688 847.261719 432.285156 847.484375 432.035156 C 847.703125 431.78125 847.945312 431.554688 848.207031 431.347656 C 848.472656 431.144531 848.75 430.960938 849.046875 430.808594 C 849.34375 430.65625 849.652344 430.53125 849.972656 430.433594 C 850.289062 430.335938 850.617188 430.269531 850.949219 430.234375 C 851.28125 430.199219 851.613281 430.191406 851.945312 430.21875 C 852.277344 430.242188 852.605469 430.300781 852.929688 430.386719 C 853.253906 430.472656 853.5625 430.585938 853.863281 430.730469 C 854.164062 430.875 854.453125 431.046875 854.71875 431.246094 C 854.988281 431.441406 855.238281 431.664062 855.46875 431.90625 C 855.695312 432.148438 855.898438 432.410156 856.078125 432.695312 C 856.257812 432.976562 856.410156 433.269531 856.535156 433.582031 C 856.660156 433.890625 856.757812 434.207031 856.820312 434.535156 C 856.886719 434.863281 856.921875 435.195312 856.925781 435.527344 C 856.929688 435.863281 856.90625 436.195312 856.847656 436.523438 C 856.789062 436.851562 856.703125 437.171875 856.585938 437.484375 C 852.339844 446.375 852.089844 460.460938 851.839844 475.34375 C 851.292969 505.5625 850.640625 543.222656 810.035156 545.269531 C 785.960938 546.417969 759.539062 545.269531 742.757812 525.292969 C 741.15625 523.144531 739.738281 520.882812 738.507812 518.503906 C 737.277344 516.125 736.25 513.660156 735.425781 511.109375 C 734.601562 508.5625 733.992188 505.964844 733.597656 503.3125 C 733.199219 500.664062 733.023438 498 733.066406 495.324219 C 723.777344 521.246094 714.1875 547.167969 711.292969 553.5625 L 710.144531 556.058594 C 714.339844 566.046875 717.984375 581.582031 720.382812 585.578125 C 724.164062 591.074219 728.425781 596.167969 733.167969 600.859375 C 734.824219 602.644531 736.132812 604.65625 737.09375 606.894531 C 738.050781 609.132812 738.609375 611.464844 738.761719 613.894531 C 738.808594 614.945312 738.734375 615.984375 738.535156 617.011719 C 738.335938 618.042969 738.019531 619.035156 737.585938 619.988281 C 737.152344 620.945312 736.609375 621.835938 735.964844 622.664062 C 735.320312 623.492188 734.585938 624.230469 733.765625 624.882812 C 731.46875 626.683594 733.519531 631.226562 731.21875 635.324219 C 729.335938 638.515625 726.855469 641.144531 723.777344 643.214844 C 721.730469 644.761719 725.027344 648.210938 717.882812 656.5 C 710.742188 664.792969 678.925781 666.140625 670.433594 674.980469 C 664.792969 680.824219 663.644531 692.363281 663.59375 702.902344 C 681.671875 741.859375 696.308594 783.664062 696.90625 826.816406 C 700.820312 827.667969 704.675781 828.730469 708.476562 829.996094 C 712.277344 831.265625 715.996094 832.730469 719.636719 834.398438 C 723.28125 836.066406 726.820312 837.925781 730.261719 839.976562 C 733.703125 842.023438 737.023438 844.253906 740.226562 846.660156 C 743.429688 849.066406 746.492188 851.636719 749.417969 854.375 C 752.339844 857.109375 755.109375 859.996094 757.726562 863.03125 C 760.339844 866.0625 762.785156 869.230469 765.058594 872.527344 C 767.332031 875.824219 769.421875 879.234375 771.328125 882.757812 C 777.121094 893.597656 782.015625 905.285156 790.457031 914.472656 C 795.414062 918.628906 799.292969 923.625 802.09375 929.457031 C 805.988281 941.34375 796.050781 950.882812 790.308594 960.125 C 784.5625 969.363281 780.316406 982.101562 767.632812 984.398438 C 754.34375 986.847656 729.871094 982.25 719.234375 992.6875 C 714.238281 997.683594 718.234375 1002.679688 721.132812 1007.921875 C 729.570312 1023.757812 733.816406 1041.535156 726.125 1057.871094 C 717.433594 1076.351562 716.785156 1088.535156 712.988281 1096.828125 C 711.0625 1101.34375 708.578125 1105.53125 705.539062 1109.386719 C 702.496094 1113.238281 699.003906 1116.628906 695.058594 1119.554688 L 692.710938 1121.25 C 702.25 1119.640625 711.859375 1118.726562 721.53125 1118.503906 C 739.511719 1118.503906 757.59375 1123.898438 775.421875 1120.851562 C 798.046875 1117.054688 820.625 1100.574219 841.402344 1083.390625 C 845.996094 1086.539062 850.542969 1089.734375 855.285156 1092.730469 C 880.511719 1108.714844 901.4375 1125.097656 931.953125 1126.796875 C 957.410156 1127.609375 982.796875 1126.679688 1008.125 1124 C 1037.191406 1121.75 1065.210938 1120.101562 1093.382812 1120.101562 C 1115.082031 1120.023438 1136.726562 1121.105469 1158.3125 1123.347656 C 1181.101562 1125.273438 1203.925781 1125.972656 1226.789062 1125.445312 C 1244.710938 1125.265625 1262.542969 1126.464844 1280.28125 1129.042969 C 1297.363281 1131.539062 1309.699219 1134.039062 1323.734375 1144.027344 C 1343.714844 1157.914062 1381.820312 1157.914062 1383.019531 1157.914062 C 1408.042969 1157.710938 1497.949219 1148.574219 1460.488281 1114.707031 Z M 1460.488281 1114.707031 " fill-opacity="1" fill-rule="nonzero"/><path fill="#f5a926" d="M 416.457031 919.917969 C 434.488281 911.175781 456.714844 908.78125 477.992188 908.78125 C 501.964844 908.78125 525.140625 912.875 545.570312 925.660156 C 561.253906 935.652344 565.546875 918.167969 577.085938 911.726562 C 586.226562 906.730469 591.421875 909.328125 595.617188 898.339844 C 599.3125 888.699219 601.757812 878.660156 604.65625 868.773438 C 609.652344 851.242188 598.3125 831.863281 588.125 817.878906 C 577.183594 802.894531 563.449219 790.457031 558.15625 772.078125 C 553.910156 757.941406 555.410156 738.511719 555.410156 719.132812 C 555.410156 704.449219 555.410156 689.863281 554.960938 675.230469 C 554.960938 666.089844 555.507812 655.851562 561.453125 655.851562 C 575.039062 655.851562 585.976562 685.820312 590.421875 695.808594 C 598.210938 713.039062 607.652344 729.371094 616.59375 746.054688 C 624.035156 759.839844 629.777344 775.722656 638.371094 788.707031 C 638.917969 779.617188 634.472656 771.375 632.777344 762.6875 C 628.730469 741.558594 629.980469 717.386719 630.777344 695.757812 C 630.777344 689.363281 631.875 668.488281 640.765625 668.488281 C 642.886719 668.636719 644.75 669.402344 646.359375 670.785156 C 652.304688 675.179688 655.101562 684.871094 658.25 691.261719 C 660.097656 695.058594 661.894531 698.953125 663.691406 702.800781 C 663.691406 692.261719 664.890625 680.722656 670.535156 674.878906 C 679.027344 666.039062 710.84375 664.542969 717.984375 656.398438 C 725.125 648.257812 721.832031 644.664062 723.878906 643.113281 C 727.027344 641.066406 729.574219 638.4375 731.519531 635.222656 C 733.816406 631.128906 731.769531 626.582031 734.066406 624.785156 C 734.886719 624.128906 735.621094 623.390625 736.265625 622.5625 C 736.910156 621.734375 737.449219 620.84375 737.882812 619.890625 C 738.316406 618.933594 738.632812 617.941406 738.832031 616.914062 C 739.03125 615.882812 739.109375 614.84375 739.0625 613.796875 C 738.972656 611.339844 738.46875 608.96875 737.550781 606.6875 C 736.632812 604.40625 735.355469 602.347656 733.71875 600.511719 C 728.972656 595.816406 724.710938 590.722656 720.929688 585.226562 C 717.882812 580.230469 712.789062 556.359375 707.144531 548.964844 C 701.503906 541.574219 680.625 518.597656 666.339844 514.503906 C 652.054688 510.40625 649.507812 510.457031 647.460938 506.609375 C 645.414062 502.765625 659.445312 471.148438 657.449219 467.054688 C 657.367188 466.792969 657.242188 466.550781 657.078125 466.332031 C 656.914062 466.113281 656.71875 465.925781 656.492188 465.773438 C 656.265625 465.621094 656.023438 465.507812 655.757812 465.433594 C 655.492188 465.363281 655.226562 465.335938 654.953125 465.355469 C 652.503906 465.355469 636.121094 479.390625 636.023438 479.339844 C 634.273438 478.292969 638.21875 464.355469 634.921875 463.957031 C 627.03125 461.910156 585.777344 503.914062 568.695312 516.550781 C 551.613281 529.1875 530.035156 543.519531 512.003906 584.578125 C 493.226562 627.332031 494.175781 684.46875 462.058594 692.8125 C 429.941406 701.152344 386.691406 692.210938 341.089844 719.78125 C 331.230469 725.90625 321.859375 732.699219 312.980469 740.171875 C 304.097656 747.644531 295.796875 755.710938 288.078125 764.378906 C 280.359375 773.042969 273.300781 782.21875 266.902344 791.902344 C 260.503906 801.582031 254.832031 811.671875 249.886719 822.171875 C 222.015625 882.109375 218.671875 935.699219 219.917969 1000.78125 C 220.46875 1026.453125 216.972656 1057.820312 187.503906 1065.261719 C 179.019531 1067.316406 170.410156 1068.316406 161.679688 1068.257812 C 137.40625 1068.257812 111.183594 1061.015625 94.554688 1045.882812 C 65.285156 1019.160156 55.09375 975.507812 66.382812 938 C 75.273438 908.429688 97.449219 881.910156 121.824219 863.078125 C 170.523438 824.621094 222.816406 792.605469 269.265625 750.949219 C 309.222656 715.289062 358.269531 650.257812 341.6875 592.820312 C 340.941406 589.015625 339.644531 585.40625 337.796875 582 C 335.949219 578.59375 333.632812 575.539062 330.851562 572.839844 C 323.308594 566.246094 308.972656 564.847656 303.328125 574.738281 C 297.683594 584.628906 302.628906 597.0625 301.980469 607.101562 C 297.933594 670.234375 225.164062 729.820312 178.5625 764.183594 C 113.035156 812.382812 43.90625 843.648438 19.535156 928.558594 C 1.953125 990.242188 30.472656 1068.957031 90.257812 1095.230469 C 117.726562 1107.265625 148.246094 1104.320312 177.214844 1108.164062 C 193.472656 1109.941406 209.304688 1113.570312 224.714844 1119.054688 C 235.253906 1123.097656 250.734375 1126.644531 258.226562 1135.4375 C 262.621094 1140.429688 263.820312 1145.125 270.5625 1148.273438 C 279.929688 1151.738281 289.601562 1153.320312 299.582031 1153.015625 C 295.835938 1077.097656 303.730469 974.609375 416.457031 919.917969 Z M 416.457031 919.917969 " fill-opacity="1" fill-rule="nonzero"/></svg>